:SAMPLES-PER-SECOND 30
:FULLY-SPECIFIED
:DEGREES
539
root  -41.04 39.6507 13.4349 176.387 50.2855 177.741
RightUpLeg  12.2713 -7.29686 1.5936
RightLeg  11.44 -2.34704 3.39435
RightFoot  -19.9746 -0.596142 -6.11064
RightToes  0.00048216 0.542163 -0.142577
Spine  14.2877 1.06095 5.6467
Spine1  10.0651 2.6864 -3.20741
HEad  6.0504 2.38496 -7.31676
LeftShoulder1  8.24467 -12.2897 -45.5068
LeftArm  -16.4235 24.0515 -25.7624
LeftForeArm  21.2616 -30.5022 -5.47207
LeftHand  -0.25398 0.0180481 5.50724
RightShoulder  5.30716 8.70197 37.4566
RightArm  0.750785 -1.16257 36.8389
RightForeArm  4.71229 14.0785 7.18776
RightHand  -0.685286 -0.212622 -15.3337
LeftUpLeg  -16.6937 5.44034 -5.15868
LeftLeg  -1.4691 33.5421 -11.272
LeftFoot  1.78192 0.956373 -8.40222
LeftToes  1.06246e-005 4.65856e-005 -8.18501e-006
540
root  -39.7022 39.2329 12.9829 176.992 50.9772 178.843
RightUpLeg  14.226 -7.46643 2.55547
RightLeg  12.6273 -2.04546 3.74313
RightFoot  -21.4335 -0.666598 -5.90657
RightToes  0.00048216 0.542163 -0.142577
Spine  13.0574 1.35727 5.82403
Spine1  10.1718 3.10254 -3.70792
HEad  6.85246 3.11154 -7.05907
LeftShoulder1  7.98984 -11.9657 -45.0037
LeftArm  -15.9804 25.1752 -25.4203
LeftForeArm  20.9688 -30.3526 -5.45285
LeftHand  -0.25398 0.0180481 5.50724
RightShoulder  5.26105 8.59772 37.4503
RightArm  3.0351 -0.736411 38.4589
RightForeArm  2.85075 16.6431 6.41403
RightHand  -0.663807 -0.22179 -14.8831
LeftUpLeg  -16.23 3.62631 -4.85176
LeftLeg  -4.86133 41.5064 -14.7611
LeftFoot  1.94158 0.965994 -8.40795
LeftToes  1.06246e-005 4.65856e-005 -8.18501e-006
541
root  -38.2789 38.8711 12.4907 177.349 51.7229 179.279
RightUpLeg  16.1283 -8.83687 2.41999
RightLeg  14.0125 0.256392 4.42148
RightFoot  -22.058 -0.660477 -5.44982
RightToes  0.00048216 0.542163 -0.142577
Spine  11.6757 1.82161 5.62877
Spine1  10.4362 3.89036 -4.64002
HEad  7.42011 3.76965 -6.58519
LeftShoulder1  7.71535 -11.6393 -44.3656
LeftArm  -15.8482 26.4866 -25.073
LeftForeArm  20.878 -30.0772 -5.3925
LeftHand  -0.25398 0.0180481 5.50724
RightShoulder  5.25546 8.57292 37.4918
RightArm  5.09426 -1.29295 40.1053
RightForeArm  0.226148 19.6752 5.50173
RightHand  -0.702715 0.0381453 -15.0249
LeftUpLeg  -16.1163 5.40972 -6.11412
LeftLeg  -4.2591 43.291 -15.2007
LeftFoot  1.14719 0.197459 -1.78284
LeftToes  1.06246e-005 4.65856e-005 -8.18501e-006
542
root  -36.7544 38.6023 11.9565 176.883 52.4674 178.517
RightUpLeg  18.1081 -13.5038 -0.25271
RightLeg  16.399 6.64215 5.62973
RightFoot  -21.5475 -0.582175 -4.95017
RightToes  0.00048216 0.542163 -0.142577
Spine  10.2197 2.48817 4.21039
Spine1  10.6756 4.7769 -5.34249
HEad  8.01401 4.54915 -5.84735
LeftShoulder1  7.42095 -11.2147 -43.8788
LeftArm  -16.5763 28.0339 -24.5834
LeftForeArm  21.2055 -29.6674 -5.27752
LeftHand  -0.25398 0.0180481 5.50724
RightShoulder  5.30388 8.61966 37.7151
RightArm  6.62128 -2.25656 41.4778
RightForeArm  -1.38709 22.3715 5.05364
RightHand  -0.753076 0.311242 -15.3577
LeftUpLeg  -16.9824 10.3733 -9.07448
LeftLeg  1.02493 39.7087 -11.0746
LeftFoot  -0.730403 -0.991181 10.8598
LeftToes  1.06246e-005 4.65856e-005 -8.18501e-006
543
root  -35.1709 38.4188 11.417 175.316 52.5271 176.602
RightUpLeg  19.4466 -20.8724 -5.35194
RightLeg  21.8463 16.2114 7.86309
RightFoot  -19.2679 -0.288339 -2.33692
RightToes  0.00048216 0.542163 -0.142577
Spine  9.21319 3.1239 1.30405
Spine1  10.3231 5.24362 -5.35531
HEad  8.8797 5.28039 -4.75538
LeftShoulder1  7.16088 -10.7735 -43.6339
LeftArm  -17.6726 29.5086 -23.946
LeftForeArm  21.3899 -28.9031 -5.08979
LeftHand  -0.25398 0.0180481 5.50724
RightShoulder  5.37264 8.64427 38.1752
RightArm  7.8746 -3.00295 42.4884
RightForeArm  -0.632529 23.9107 5.11902
RightHand  -0.789572 0.601235 -15.3531
LeftUpLeg  -19.446 19.3819 -14.3026
LeftLeg  9.87325 30.9137 -2.74306
LeftFoot  -3.34374 -1.44688 20.5681
LeftToes  1.06246e-005 4.65856e-005 -8.18501e-006
544
root  -33.7014 38.3797 10.9309 173.006 51.4933 173.825
RightUpLeg  17.6705 -22.6059 -9.013
RightLeg  30.789 19.9748 12.0783
RightFoot  -13.043 -0.0778952 5.47171
RightToes  0.00048216 0.542163 -0.142577
Spine  9.18943 3.43721 -2.23972
Spine1  9.3435 5.27596 -5.39203
HEad  9.87096 5.6037 -3.52282
LeftShoulder1  7.03028 -10.581 -43.4104
LeftArm  -18.2711 30.4887 -23.4466
LeftForeArm  20.6443 -27.501 -4.81169
LeftHand  -0.25398 0.0180481 5.50724
RightShoulder  5.37663 8.59461 38.3805
RightArm  9.6492 -3.26128 43.5944
RightForeArm  1.68077 23.9596 5.03999
RightHand  -0.792505 0.874848 -14.7681
LeftUpLeg  -21.8538 28.0659 -20.1194
LeftLeg  15.9322 20.8368 4.0567
LeftFoot  -5.09252 -1.18088 21.7828
LeftToes  1.06246e-005 4.65856e-005 -8.18501e-006
545
root  -32.4651 38.3941 10.5186 170.74 50.0117 170.96
RightUpLeg  12.1962 -20.7247 -11.0859
RightLeg  41.9566 18.5182 16.7418
RightFoot  -1.84244 -1.47836 16.974
RightToes  0.00048216 0.542163 -0.142577
Spine  9.94155 3.53381 -4.99304
Spine1  8.29151 5.27679 -6.42388
HEad  10.5545 5.59958 -2.70959
LeftShoulder1  7.02982 -10.705 -43.0074
LeftArm  -18.2601 30.9351 -23.4674
LeftForeArm  19.3524 -25.8827 -4.52178
LeftHand  -0.25398 0.0180481 5.50724
RightShoulder  5.28049 8.53789 37.8142
RightArm  11.9296 -2.96173 45.0434
RightForeArm  4.24316 23.0014 4.78011
RightHand  -0.702989 0.670971 -13.5169
LeftUpLeg  -22.036 29.9559 -22.3271
LeftLeg  19.4242 17.2533 6.86719
LeftFoot  -6.48211 -0.741357 18.1695
LeftToes  1.06246e-005 4.65856e-005 -8.18501e-006
546
root  -31.4122 38.354 10.1665 168.928 48.5241 168.628
RightUpLeg  4.98889 -18.5836 -12.5953
RightLeg  52.4819 13.8174 18.0922
RightFoot  9.45055 -4.39677 24.3929
RightToes  0.00048216 0.542163 -0.142577
Spine  10.9285 3.55864 -6.73584
Spine1  7.711 5.27039 -8.04827
HEad  10.7001 5.68342 -2.69484
LeftShoulder1  7.05578 -10.8862 -42.599
LeftArm  -18.0895 31.0685 -24.0613
LeftForeArm  18.9891 -25.0596 -4.36222
LeftHand  -0.25398 0.0180481 5.50724
RightShoulder  5.15846 8.5469 36.8036
RightArm  14.251 -2.14323 46.1319
RightForeArm  6.18486 22.2065 4.70086
RightHand  -0.532239 -0.188123 -11.8592
LeftUpLeg  -20.7338 29.6144 -22.4028
LeftLeg  21.8922 16.3918 7.21277
LeftFoot  -8.40376 -0.355235 15.8664
LeftToes  1.06246e-005 4.65856e-005 -8.18501e-006
547
root  -30.3581 38.4602 9.79447 168.216 46.2484 167.9
RightUpLeg  -1.56075 -17.4685 -13.5174
RightLeg  60.285 8.09013 14.4881
RightFoot  14.4222 -5.26294 23.2057
RightToes  0.00048216 0.542163 -0.142577
Spine  11.9095 3.22013 -7.58707
Spine1  7.45841 4.79744 -8.80496
HEad  10.4997 5.79535 -3.19127
LeftShoulder1  7.05397 -10.9024 -42.5369
LeftArm  -17.7788 30.8821 -24.8856
LeftForeArm  20.5212 -25.483 -4.37264
LeftHand  -0.25398 0.0180481 5.50724
RightShoulder  5.08584 8.555 36.1893
RightArm  15.9123 -1.26073 45.8464
RightForeArm  6.99175 22.5801 4.65983
RightHand  -0.422972 -0.878463 -10.8049
LeftUpLeg  -17.9857 28.4243 -21.1319
LeftLeg  22.4829 15.963 6.50514
LeftFoot  -9.74902 -0.157925 15.5196
LeftToes  1.06246e-005 4.65856e-005 -8.18501e-006
548
root  -29.2392 38.8596 9.35401 169.056 42.5658 169.36
RightUpLeg  -6.53538 -18.1196 -13.5561
RightLeg  64.5893 3.24837 6.92124
RightFoot  13.3922 -3.52166 16.27
RightToes  0.00048216 0.542163 -0.142577
Spine  12.7668 2.39526 -7.14167
Spine1  7.18635 3.80539 -8.13919
HEad  10.3233 5.3206 -3.47424
LeftShoulder1  7.05528 -10.8249 -42.7897
LeftArm  -17.0322 30.2464 -25.7112
LeftForeArm  23.5447 -26.7216 -4.48098
LeftHand  -0.25398 0.0180481 5.50724
RightShoulder  5.04115 8.44803 36.193
RightArm  15.0613 -1.13631 44.0482
RightForeArm  7.2436 24.0123 4.74787
RightHand  -0.478941 -0.496845 -11.2845
LeftUpLeg  -13.6648 25.0925 -18.1771
LeftLeg  20.9383 15.9468 5.24427
LeftFoot  -9.62445 -0.156048 14.309
LeftToes  1.06246e-005 4.65856e-005 -8.18501e-006
